<?xml version="1.0" encoding="UTF-8" standalone="no"?>
<!DOCTYPE svg PUBLIC "-//W3C//DTD SVG 1.1//EN"
 "http://www.w3.org/Graphics/SVG/1.1/DTD/svg11.dtd">
<!-- Generated by graphviz version 2.32.0 (20131130.1916)
 -->
<!-- Title: controllers_diagram Pages: 1 -->
<svg width="476pt" height="433pt"
 viewBox="0.00 0.00 476.38 433.50" xmlns="http://www.w3.org/2000/svg" xmlns:xlink="http://www.w3.org/1999/xlink">
<g id="graph0" class="graph" transform="scale(1 1) rotate(0) translate(4 429.495)">
<title>controllers_diagram</title>
<polygon fill="white" stroke="white" points="-4,5 -4,-429.495 473.375,-429.495 473.375,5 -4,5"/>
<!-- _diagram_info -->
<g id="node1" class="node"><title>_diagram_info</title>
<text text-anchor="start" x="269" y="-185" font-family="Times,serif" font-size="13.00">Controllers diagram</text>
<text text-anchor="start" x="269" y="-169.4" font-family="Times,serif" font-size="13.00">Date: Jan 09 2014 &#45; 20:26</text>
<text text-anchor="start" x="269" y="-153.8" font-family="Times,serif" font-size="13.00">Migration version: 20140108052134</text>
<text text-anchor="start" x="269" y="-138.2" font-family="Times,serif" font-size="13.00">Generated by RailRoady 1.1.1</text>
<text text-anchor="start" x="269" y="-122.6" font-family="Times,serif" font-size="13.00">http://railroady.prestonlee.com</text>
</g>
<!-- ApplicationController -->
<g id="node2" class="node"><title>ApplicationController</title>
<path fill="none" stroke="black" d="M12,-256.658C12,-256.658 127.642,-256.658 127.642,-256.658 133.642,-256.658 139.642,-262.658 139.642,-268.658 139.642,-268.658 139.642,-342.258 139.642,-342.258 139.642,-348.258 133.642,-354.258 127.642,-354.258 127.642,-354.258 12,-354.258 12,-354.258 6,-354.258 0,-348.258 0,-342.258 0,-342.258 0,-268.658 0,-268.658 0,-262.658 6,-256.658 12,-256.658"/>
<text text-anchor="middle" x="69.8208" y="-336.258" font-family="Times,serif" font-size="14.00">ApplicationController</text>
<polyline fill="none" stroke="black" points="0,-329.458 139.642,-329.458 "/>
<polyline fill="none" stroke="black" points="0,-305.458 139.642,-305.458 "/>
<polyline fill="none" stroke="black" points="0,-281.458 139.642,-281.458 "/>
<text text-anchor="start" x="8" y="-263.458" font-family="Times,serif" font-size="14.00">_layout</text>
</g>
<!-- HomeController -->
<g id="node3" class="node"><title>HomeController</title>
<path fill="none" stroke="black" d="M158.198,-309.795C158.198,-309.795 241.957,-309.795 241.957,-309.795 247.957,-309.795 253.957,-315.795 253.957,-321.795 253.957,-321.795 253.957,-412.995 253.957,-412.995 253.957,-418.995 247.957,-424.995 241.957,-424.995 241.957,-424.995 158.198,-424.995 158.198,-424.995 152.198,-424.995 146.198,-418.995 146.198,-412.995 146.198,-412.995 146.198,-321.795 146.198,-321.795 146.198,-315.795 152.198,-309.795 158.198,-309.795"/>
<text text-anchor="middle" x="200.077" y="-406.995" font-family="Times,serif" font-size="14.00">HomeController</text>
<polyline fill="none" stroke="black" points="146.198,-400.195 253.957,-400.195 "/>
<text text-anchor="start" x="154.198" y="-382.195" font-family="Times,serif" font-size="14.00">abous_us</text>
<text text-anchor="start" x="154.198" y="-365.395" font-family="Times,serif" font-size="14.00">index</text>
<polyline fill="none" stroke="black" points="146.198,-358.595 253.957,-358.595 "/>
<polyline fill="none" stroke="black" points="146.198,-334.595 253.957,-334.595 "/>
<text text-anchor="start" x="154.198" y="-316.595" font-family="Times,serif" font-size="14.00">_layout</text>
</g>
<!-- ApplicationController&#45;&gt;HomeController -->
<g id="edge1" class="edge"><title>ApplicationController&#45;&gt;HomeController</title>
<path fill="none" stroke="black" d="M139.906,-338.783C141.953,-339.757 143.994,-340.727 146.02,-341.691"/>
</g>
<!-- MessagesController -->
<g id="node4" class="node"><title>MessagesController</title>
<path fill="none" stroke="black" d="M103.983,-0.5C103.983,-0.5 207.963,-0.5 207.963,-0.5 213.963,-0.5 219.963,-6.5 219.963,-12.5 219.963,-12.5 219.963,-221.3 219.963,-221.3 219.963,-227.3 213.963,-233.3 207.963,-233.3 207.963,-233.3 103.983,-233.3 103.983,-233.3 97.9833,-233.3 91.9833,-227.3 91.9833,-221.3 91.9833,-221.3 91.9833,-12.5 91.9833,-12.5 91.9833,-6.5 97.9833,-0.5 103.983,-0.5"/>
<text text-anchor="middle" x="155.973" y="-215.3" font-family="Times,serif" font-size="14.00">MessagesController</text>
<polyline fill="none" stroke="black" points="91.9833,-208.5 219.963,-208.5 "/>
<text text-anchor="start" x="99.9833" y="-190.5" font-family="Times,serif" font-size="14.00">create</text>
<text text-anchor="start" x="99.9833" y="-173.7" font-family="Times,serif" font-size="14.00">destroy</text>
<text text-anchor="start" x="99.9833" y="-156.9" font-family="Times,serif" font-size="14.00">edit</text>
<text text-anchor="start" x="99.9833" y="-140.1" font-family="Times,serif" font-size="14.00">index</text>
<text text-anchor="start" x="99.9833" y="-123.3" font-family="Times,serif" font-size="14.00">new</text>
<text text-anchor="start" x="99.9833" y="-106.5" font-family="Times,serif" font-size="14.00">show</text>
<text text-anchor="start" x="99.9833" y="-89.7" font-family="Times,serif" font-size="14.00">update</text>
<polyline fill="none" stroke="black" points="91.9833,-82.9 219.963,-82.9 "/>
<polyline fill="none" stroke="black" points="91.9833,-58.9 219.963,-58.9 "/>
<text text-anchor="start" x="99.9833" y="-40.9" font-family="Times,serif" font-size="14.00">_layout</text>
<text text-anchor="start" x="99.9833" y="-24.1" font-family="Times,serif" font-size="14.00">message_params</text>
<text text-anchor="start" x="99.9833" y="-7.3" font-family="Times,serif" font-size="14.00">set_message</text>
</g>
<!-- ApplicationController&#45;&gt;MessagesController -->
<g id="edge2" class="edge"><title>ApplicationController&#45;&gt;MessagesController</title>
<path fill="none" stroke="black" d="M92.2314,-256.409C95.5219,-249.207 99.0233,-241.543 102.626,-233.657"/>
</g>
</g>
</svg>
