<?xml version="1.0" encoding="UTF-8" standalone="no"?>
<!DOCTYPE svg PUBLIC "-//W3C//DTD SVG 1.1//EN"
 "http://www.w3.org/Graphics/SVG/1.1/DTD/svg11.dtd">
<!-- Generated by graphviz version 2.32.0 (20131130.1916)
 -->
<!-- Title: models_diagram Pages: 1 -->
<svg width="409pt" height="316pt"
 viewBox="0.00 0.00 409.00 316.00" xmlns="http://www.w3.org/2000/svg" xmlns:xlink="http://www.w3.org/1999/xlink">
<g id="graph0" class="graph" transform="scale(1 1) rotate(0) translate(4 312)">
<title>models_diagram</title>
<polygon fill="white" stroke="white" points="-4,5 -4,-312 406,-312 406,5 -4,5"/>
<!-- _diagram_info -->
<g id="node1" class="node"><title>_diagram_info</title>
<text text-anchor="start" x="7.31226" y="-291" font-family="Times,serif" font-size="13.00">Models diagram</text>
<text text-anchor="start" x="7.31226" y="-275.4" font-family="Times,serif" font-size="13.00">Date: Jan 09 2014 &#45; 20:26</text>
<text text-anchor="start" x="7.31226" y="-259.8" font-family="Times,serif" font-size="13.00">Migration version: 20140108052134</text>
<text text-anchor="start" x="7.31226" y="-244.2" font-family="Times,serif" font-size="13.00">Generated by RailRoady 1.1.1</text>
<text text-anchor="start" x="7.31226" y="-228.6" font-family="Times,serif" font-size="13.00">http://railroady.prestonlee.com</text>
</g>
<!-- Message -->
<g id="node2" class="node"><title>Message</title>
<path fill="none" stroke="black" d="M249.164,-1C249.164,-1 376.836,-1 376.836,-1 382.836,-1 388.836,-7 388.836,-13 388.836,-13 388.836,-173 388.836,-173 388.836,-179 382.836,-185 376.836,-185 376.836,-185 249.164,-185 249.164,-185 243.164,-185 237.164,-179 237.164,-173 237.164,-173 237.164,-13 237.164,-13 237.164,-7 243.164,-1 249.164,-1"/>
<text text-anchor="middle" x="313" y="-167" font-family="Times,serif" font-size="14.00">Message</text>
<polyline fill="none" stroke="black" points="237.164,-160.2 388.836,-160.2 "/>
<text text-anchor="start" x="245.164" y="-142.2" font-family="Times,serif" font-size="14.00">id :integer</text>
<text text-anchor="start" x="245.164" y="-125.4" font-family="Times,serif" font-size="14.00">title :string</text>
<text text-anchor="start" x="245.164" y="-108.6" font-family="Times,serif" font-size="14.00">text :string</text>
<text text-anchor="start" x="245.164" y="-91.8" font-family="Times,serif" font-size="14.00">father :integer</text>
<text text-anchor="start" x="245.164" y="-75" font-family="Times,serif" font-size="14.00">user :integer</text>
<text text-anchor="start" x="245.164" y="-58.2" font-family="Times,serif" font-size="14.00">minus_one :integer</text>
<text text-anchor="start" x="245.164" y="-41.4" font-family="Times,serif" font-size="14.00">number_answer :integer</text>
<text text-anchor="start" x="245.164" y="-24.6" font-family="Times,serif" font-size="14.00">created_at :datetime</text>
<text text-anchor="start" x="245.164" y="-7.8" font-family="Times,serif" font-size="14.00">updated_at :datetime</text>
</g>
<!-- ActiveRecord::Base -->
<g id="node3" class="node"><title>ActiveRecord::Base</title>
<ellipse fill="none" stroke="black" cx="313" cy="-265" rx="88.2033" ry="18"/>
<text text-anchor="middle" x="313" y="-259.4" font-family="Times,serif" font-size="14.00">ActiveRecord::Base</text>
</g>
<!-- ActiveRecord::Base&#45;&gt;Message -->
<g id="edge1" class="edge"><title>ActiveRecord::Base&#45;&gt;Message</title>
<path fill="none" stroke="black" d="M313,-246.764C313,-231.739 313,-208.697 313,-185.028"/>
</g>
</g>
</svg>
